Units are S.I. units (second, meters, Newtons, ...)
Angles are in degrees.
name walk
datarows 24
datacolumns 18
range 3.290000 3.520000
endheader
time root_joint_q1 root_joint_q2 root_joint_q3 root_joint_q4 root_joint_q5 root_joint_q6 root_joint_q7 exo_ha_l_q exo_hip_l exo_knee_l l_ankle_coupling l_foot exo_ha_r_q exo_hip_r exo_knee_r r_ankle_coupling r_foot
3.290000	1.300635	0.016012	0.894543	0.000570	-0.000282	0.002408	0.999997	0.023381	0.048345	-0.832318	0.783423	0.020285	0.067569	0.272349	-0.872220	0.595151	-0.059647
3.300000	1.305930	0.015835	0.896240	0.000508	-0.000311	0.002275	0.999997	0.022627	0.063088	-0.849323	0.785597	0.019577	0.068478	0.258553	-0.856887	0.593377	-0.060301
3.310000	1.311154	0.015763	0.897824	0.000470	-0.000348	0.002121	0.999998	0.022234	0.077702	-0.866090	0.787709	0.019236	0.069199	0.245062	-0.842023	0.591746	-0.060805
3.320000	1.316359	0.015761	0.899297	0.000450	-0.000391	0.001951	0.999998	0.022112	0.092184	-0.882581	0.789698	0.019162	0.069786	0.231780	-0.827576	0.590309	-0.061210
3.330000	1.321600	0.015801	0.900659	0.000448	-0.000435	0.001774	0.999998	0.022194	0.106502	-0.898734	0.791529	0.019279	0.070282	0.218609	-0.813505	0.589132	-0.061556
3.340000	1.326941	0.015861	0.901906	0.000463	-0.000475	0.001593	0.999999	0.022428	0.120601	-0.914473	0.793176	0.019524	0.070720	0.205455	-0.799789	0.588303	-0.061879
3.350000	1.332453	0.015919	0.903035	0.000498	-0.000494	0.001415	0.999999	0.022765	0.134413	-0.929707	0.794610	0.019844	0.071125	0.192235	-0.786417	0.587927	-0.062207
3.360000	1.338216	0.015955	0.904042	0.000550	-0.000462	0.001245	0.999999	0.023130	0.147868	-0.944325	0.795778	0.020194	0.071529	0.178899	-0.773419	0.588142	-0.062571
3.370000	1.344151	0.015969	0.904916	0.000618	-0.000412	0.001081	0.999999	0.023551	0.161076	-0.958254	0.796537	0.020557	0.071937	0.165495	-0.760785	0.588825	-0.062973
3.380000	1.350043	0.015962	0.905663	0.000708	-0.000382	0.000921	0.999999	0.024011	0.174003	-0.971370	0.796747	0.020906	0.072333	0.152301	-0.748597	0.589706	-0.063407
3.390000	1.355838	0.015930	0.906284	0.000818	-0.000372	0.000765	0.999999	0.024473	0.186639	-0.983526	0.796266	0.021213	0.072726	0.139426	-0.736928	0.590747	-0.063881
3.400000	1.361539	0.015868	0.906770	0.000943	-0.000377	0.000614	0.999999	0.024892	0.198967	-0.994553	0.794945	0.021441	0.073138	0.126902	-0.725862	0.592012	-0.064405
3.410000	1.367177	0.015763	0.907104	0.001071	-0.000391	0.000473	0.999999	0.025203	0.210953	-1.004251	0.792618	0.021550	0.073614	0.114730	-0.715500	0.593611	-0.065002
3.420000	1.372795	0.015598	0.907255	0.001168	-0.000408	0.000346	0.999999	0.025298	0.222556	-1.012381	0.789100	0.021498	0.074250	0.102902	-0.705968	0.595694	-0.065703
3.430000	1.378442	0.015347	0.907173	0.001171	-0.000410	0.000243	0.999999	0.024979	0.233743	-1.018650	0.784182	0.021251	0.075227	0.091429	-0.697406	0.598425	-0.066561
3.440000	1.384155	0.015004	0.906859	0.001080	-0.000390	0.000164	0.999999	0.024241	0.244490	-1.023040	0.777866	0.020799	0.076555	0.080256	-0.689793	0.601853	-0.067588
3.450000	1.389954	0.014581	0.906360	0.000961	-0.000353	0.000105	0.999999	0.023275	0.254811	-1.025809	0.770351	0.020166	0.078070	0.069279	-0.682960	0.605902	-0.068753
3.460000	1.395839	0.014084	0.905712	0.000850	-0.000294	0.000066	1.000000	0.022181	0.264770	-1.027163	0.761788	0.019378	0.079688	0.058453	-0.676761	0.610482	-0.070042
3.470000	1.401744	0.013514	0.904946	0.000765	-0.000213	0.000045	1.000000	0.021020	0.274455	-1.027269	0.752281	0.018456	0.081368	0.047835	-0.671101	0.615438	-0.071449
3.480000	1.407418	0.012869	0.904090	0.000689	-0.000147	0.000039	1.000000	0.019773	0.283822	-1.026226	0.741909	0.017418	0.083144	0.037760	-0.666051	0.620437	-0.072976
3.490000	1.412777	0.012149	0.903175	0.000625	-0.000094	0.000049	1.000000	0.018436	0.292927	-1.024147	0.730722	0.016273	0.085012	0.028350	-0.661588	0.625334	-0.074622
3.500000	1.417861	0.011352	0.902221	0.000581	-0.000034	0.000076	1.000000	0.017017	0.301899	-1.021161	0.718729	0.015040	0.086955	0.019556	-0.657637	0.630144	-0.076388
3.510000	1.422663	0.010493	0.901221	0.000554	-0.000021	0.000113	1.000000	0.015627	0.311046	-1.017440	0.705871	0.013767	0.088959	0.011247	-0.654112	0.634806	-0.078254
3.520000	1.427226	0.009574	0.900184	0.000541	-0.000023	0.000162	1.000000	0.014257	0.320336	-1.013044	0.692199	0.012474	0.091031	0.003417	-0.651004	0.639378	-0.080219
